<svg version="1.1" xmlns="http://www.w3.org/2000/svg" xmlns:xlink="http://www.w3.org/1999/xlink" width="48" height="48"><defs><linearGradient x1="9.27098" y1="9.1503" x2="70.97116" y2="71.09189" gradientUnits="userSpaceOnUse" id="color-1"><stop offset="0" stop-color="#000000" stop-opacity="0.3"></stop><stop offset="1" stop-color="#000000" stop-opacity="0"></stop></linearGradient><filter id="dropshadow-base"><feColorMatrix type="matrix" values="0 0 0 0 0  0 0 0 0 0  0 0 0 0 0  0 0 0 .8 0"></feColorMatrix> <feOffset dx="0" dy="1"></feOffset> <feGaussianBlur stdDeviation="1"></feGaussianBlur> <feComposite in="SourceGraphic"></feComposite></filter><filter id="dropshadow-banner" x="-10%" y="-10%" width="120%" height="130%"><feColorMatrix type="matrix" values="0 0 0 0 0  0 0 0 0 0  0 0 0 0 0  0 0 0 .4 0"></feColorMatrix> <feOffset dx="0" dy="1"></feOffset> <feGaussianBlur stdDeviation="0.5"></feGaussianBlur> <feComposite in="SourceGraphic"></feComposite></filter></defs><g fill="none" fill-rule="nonzero" stroke="none" stroke-width="none" stroke-linecap="butt" stroke-linejoin="miter" stroke-miterlimit="10" stroke-dasharray="" stroke-dashoffset="0" font-family="none" font-weight="none" font-size="none" text-anchor="none" style="mix-blend-mode: normal"><path d="M2,24c0,-12.15026 9.84974,-22 22,-22c12.15026,0 22,9.84974 22,22c0,12.15026 -9.84974,22 -22,22c-12.15026,0 -22,-9.84974 -22,-22z" id="base 1 5" fill="#1b3665" stroke-width="1"></path><path d="M13.59864,34.52178c-2.79075,-2.79075 -4.32765,-6.50133 -4.32765,-10.44811c0,-3.60696 1.31402,-7.08029 3.70013,-9.78027c2.36487,-2.67584 5.60786,-4.40479 9.13169,-4.86827l2.08975,-0.27484l6.53813,6.53813l1.31761,-2.66973l4.54329,4.54329l2.13738,0.31059l7.24322,7.24322c-0.56365,11.28341 -9.62825,20.32781 -20.92005,20.85948z" fill="url(#color-1)" stroke-width="1"></path><path transform="translate(-11.63928,-11.63928) scale(1.48497,1.48497)" d="M32.7857,28.98992l-0.86594,1.12465c-0.90984,1.18168 -2.09281,2.15969 -3.42102,2.82828c-1.39355,0.70148 -2.89648,1.05715 -4.46711,1.05715c-2.65785,0 -5.1566,-1.035 -7.03598,-2.91441c-1.87938,-1.87934 -2.91438,-4.37813 -2.91438,-7.03598c0,-2.42898 0.88488,-4.76797 2.49172,-6.58617c1.59254,-1.80195 3.77641,-2.96625 6.14941,-3.27836l1.40727,-0.18508l-0.8659,1.12465c-1.18977,1.54527 -1.81863,3.39496 -1.81863,5.34918c0,4.83965 3.93742,8.77699 8.77707,8.77699c0.38457,0 0.77359,-0.02551 1.15617,-0.07586zM31.6693,22.06641l0.53102,3.09609l-2.78047,-1.4618l-2.78051,1.4618l0.53105,-3.09609l-2.24945,-2.1927l3.10863,-0.45172l1.39027,-2.81695l1.39023,2.81695l3.10863,0.45172z" fill="none" stroke-width="0"></path><path d="M37.04651,31.40988l-1.28589,1.67007c-1.35109,1.75476 -3.10776,3.20707 -5.08011,4.19991c-2.06939,1.04168 -4.30119,1.56983 -6.63352,1.56983c-3.94683,0 -7.6574,-1.53694 -10.44822,-4.32782c-2.79082,-2.79076 -4.32776,-6.50138 -4.32776,-10.44822c0,-3.60697 1.31402,-7.08029 3.70013,-9.78027c2.36487,-2.67585 5.60785,-4.40479 9.1317,-4.86827l2.08975,-0.27484l-1.28583,1.67007c-1.76677,2.29468 -2.70062,5.04142 -2.70062,7.94337c0,7.18673 5.84695,13.03357 13.03369,13.03357c0.57108,0 1.14876,-0.03788 1.71688,-0.11265zM35.38868,21.12867l0.78854,4.59761l-4.12891,-2.17072l-4.12897,2.17072l0.7886,-4.59761l-3.34037,-3.25609l4.61623,-0.67079l2.06451,-4.18309l2.06446,4.18309l4.61623,0.67079z" fill="#34e8e4" stroke-width="0"></path><path d="M2,24c0,-12.15026 9.84974,-22 22,-22c12.15026,0 22,9.84974 22,22c0,12.15026 -9.84974,22 -22,22c-12.15026,0 -22,-9.84974 -22,-22z" id="base 1 1 1" fill="none" stroke-width="1"></path><g id="Capa_1 1 1" fill="#000000" stroke-width="1" font-family="Roboto, sans-serif" font-weight="normal" font-size="14" text-anchor="start"><g><g></g></g><g><g></g></g><g></g><g></g><g></g><g></g><g></g><g></g><g></g><g></g><g></g><g></g><g></g><g></g><g></g><g></g><g></g></g><rect x="2" y="2" width="44" height="22" fill="none" stroke-width="1"></rect><path d="M2,24v-22h44v22z" fill="none" stroke-width="1"></path><path d="M2,24v-22h44v22z" fill="none" stroke-width="1"></path><path d="M2,24v-22h44v22z" fill="none" stroke-width="1"></path><path d="M2,24v-22h44v22z" fill="none" stroke-width="1"></path></g></svg>